<?xml version="1.0" encoding="utf-8"?>
<!-- Generator: Circuit Diagram, cdlibrary.dll 1.0.0.0 -->
<!DOCTYPE svg PUBLIC "-//W3C//DTD SVG 1.1//EN" "http://www.w3.org/Graphics/SVG/1.1/DTD/svg11.dtd">
<svg version="1.1" width="620" height="540" xmlns="http://www.w3.org/2000/svg">
	<line x1="160" y1="180" x2="160" y2="240" style="stroke:rgb(0, 0, 0);stroke-linecap:square;stroke-width:2" />
	<text x="460" y="40" style="font-family:Arial;font-size:11px;text-anchor:start" dominant-baseline="middle" transform="rotate(0, 460, 40)">c1</text>
	<text x="440" y="40" style="font-family:Arial;font-size:11px;text-anchor:start" dominant-baseline="middle" transform="rotate(0, 440, 40)">r1</text>
	<text x="380" y="40" style="font-family:Arial;font-size:11px;text-anchor:start" dominant-baseline="middle" transform="rotate(0, 380, 40)">s1</text>
	<text x="200" y="40" style="font-family:Arial;font-size:11px;text-anchor:start" dominant-baseline="middle" transform="rotate(0, 200, 40)">r0</text>
	<text x="140" y="40" style="font-family:Arial;font-size:11px;text-anchor:start" dominant-baseline="middle" transform="rotate(0, 140, 40)">s0</text>
	<text x="550" y="510" style="font-family:Arial;font-size:11px;text-anchor:start" dominant-baseline="middle" transform="rotate(0, 550, 510)">c2</text>
	<text x="510" y="510" style="font-family:Arial;font-size:11px;text-anchor:start" dominant-baseline="middle" transform="rotate(0, 510, 510)">d1</text>
	<text x="280" y="510" style="font-family:Arial;font-size:11px;text-anchor:start" dominant-baseline="middle" transform="rotate(0, 280, 510)">c1</text>
	<text x="240" y="510" style="font-family:Arial;font-size:11px;text-anchor:start" dominant-baseline="middle" transform="rotate(0, 240, 510)">d0</text>
	<line x1="450" y1="230" x2="450" y2="250" style="stroke:rgb(0, 0, 0);stroke-linecap:square;stroke-width:2" />
	<text x="430" y="260" style="fill: rgba(255, 0, 0, 255);font-family:Arial;font-size:11px;text-anchor:start" dominant-baseline="middle" transform="rotate(0, 430, 260)">Int</text>
	<line x1="530" y1="350" x2="530" y2="370" style="stroke:rgba(255, 0, 0, 255);stroke-linecap:square;stroke-width:2" />
	<text x="490" y="310" style="fill: rgba(255, 0, 0, 255);font-family:Arial;font-size:11px;text-anchor:start" dominant-baseline="middle" transform="rotate(0, 490, 310)">bistable relay</text>
	<line x1="420" y1="340" x2="420" y2="410" style="stroke:rgba(255, 0, 0, 255);stroke-linecap:square;stroke-width:2" />
	<line x1="440" y1="370" x2="480" y2="370" style="stroke:rgba(255, 0, 0, 255);stroke-linecap:square;stroke-width:2" />
	<line x1="440" y1="310" x2="440" y2="370" style="stroke:rgba(255, 0, 0, 255);stroke-linecap:square;stroke-width:2" />
	<line x1="480" y1="310" x2="480" y2="320" style="stroke:rgba(255, 0, 0, 255);stroke-linecap:square;stroke-width:2" />
	<line x1="460" y1="310" x2="480" y2="310" style="stroke:rgba(255, 0, 0, 255);stroke-linecap:square;stroke-width:2" />
	<line x1="420" y1="340" x2="463" y2="340" style="stroke:rgba(255, 0, 0, 255);stroke-linecap:square;stroke-width:2" />
	<line x1="480" y1="360" x2="480" y2="370" style="stroke:rgba(255, 0, 0, 255);stroke-linecap:square;stroke-width:2" />
	<rect x="460" y="320" width="40" height="40" style="fill-opacity:0;fill:rgba(255, 0, 0, 255);stroke:rgba(255, 0, 0, 255);stroke-width:2" />
	<ellipse cx="467" cy="340" rx="3" ry="3" style="fill-opacity:0;fill:rgba(255, 0, 0, 255);stroke:rgba(255, 0, 0, 255);stroke-width:2" />
	<ellipse cx="493" cy="330" rx="3" ry="3" style="fill-opacity:0;fill:rgba(255, 0, 0, 255);stroke:rgba(255, 0, 0, 255);stroke-width:2" />
	<ellipse cx="493" cy="350" rx="3" ry="3" style="fill-opacity:0;fill:rgba(255, 0, 0, 255);stroke:rgba(255, 0, 0, 255);stroke-width:2" />
	<line x1="497" y1="330" x2="530" y2="330" style="stroke:rgba(255, 0, 0, 255);stroke-linecap:square;stroke-width:2" />
	<line x1="497" y1="350" x2="530" y2="350" style="stroke:rgba(255, 0, 0, 255);stroke-linecap:square;stroke-width:2" />
	<line x1="470" y1="340" x2="490" y2="330" style="stroke:rgba(255, 0, 0, 255);stroke-linecap:square;stroke-width:2" />
	<path d="M 489,331 L 485,335 L 483,331 L 489,330" style="fill-opacity:1;fill:rgba(255, 0, 0, 255);stroke:rgba(255, 0, 0, 255);stroke-linecap:square;stroke-width:2" />
	<text x="460" y="280" style="fill: rgba(255, 0, 0, 255);font-family:Arial;font-size:11px;text-anchor:start" dominant-baseline="middle" transform="rotate(0, 460, 280)">NC</text>
	<line x1="450" y1="250" x2="450" y2="266" style="stroke:rgba(255, 0, 0, 255);stroke-linecap:square;stroke-width:2" />
	<line x1="440" y1="294" x2="440" y2="310" style="stroke:rgba(255, 0, 0, 255);stroke-linecap:square;stroke-width:2" />
	<line x1="460" y1="294" x2="460" y2="310" style="stroke:rgba(255, 0, 0, 255);stroke-linecap:square;stroke-width:2" />
	<line x1="452" y1="272" x2="459" y2="288" style="stroke:rgba(255, 0, 0, 255);stroke-linecap:square;stroke-width:2" />
	<ellipse cx="450" cy="269" rx="3" ry="3" style="fill-opacity:0;fill:rgba(255, 0, 0, 255);stroke:rgba(255, 0, 0, 255);stroke-width:2" />
	<ellipse cx="440" cy="291" rx="3" ry="3" style="fill-opacity:0;fill:rgba(255, 0, 0, 255);stroke:rgba(255, 0, 0, 255);stroke-width:2" />
	<ellipse cx="460" cy="291" rx="3" ry="3" style="fill-opacity:0;fill:rgba(255, 0, 0, 255);stroke:rgba(255, 0, 0, 255);stroke-width:2" />
	<line x1="400" y1="290" x2="425" y2="290" style="stroke:rgba(255, 0, 0, 255);stroke-linecap:square;stroke-width:2" />
	<path d="M 425,290 L 425,287 L 430,290 L 425,293 L 425,290" style="fill-opacity:1;fill:rgba(255, 0, 0, 255);stroke:rgba(255, 0, 0, 255);stroke-linecap:square;stroke-width:2" />
	<text x="415" y="278" style="fill: rgba(255, 0, 0, 255);font-family:Arial;font-size:11px;text-anchor:middle" dominant-baseline="middle" transform="rotate(0, 415, 278)">Xis</text>
	<line x1="400" y1="180" x2="400" y2="290" style="stroke:rgb(0, 0, 0);stroke-linecap:square;stroke-width:2" />
	<line x1="210" y1="140" x2="230" y2="140" style="stroke:rgb(0, 0, 0);stroke-linecap:square;stroke-width:2" />
	<line x1="580" y1="80" x2="580" y2="130" style="stroke:rgb(0, 0, 0);stroke-linecap:square;stroke-width:2" />
	<line x1="220" y1="80" x2="230" y2="80" style="stroke:rgb(0, 0, 0);stroke-linecap:square;stroke-width:2" />
	<line x1="170" y1="100" x2="210" y2="100" style="stroke:rgb(0, 0, 0);stroke-linecap:square;stroke-width:2" />
	<line x1="560" y1="130" x2="560" y2="155" style="stroke:rgb(0, 0, 0);stroke-linecap:square;stroke-width:2" />
	<line x1="580" y1="130" x2="580" y2="155" style="stroke:rgb(0, 0, 0);stroke-linecap:square;stroke-width:2" />
	<path d="M 560,149 M 550,149 Q 570,169 590,149 M 590,148 Q 585,183 570,198 Q 555,183 550,148" style="fill-opacity:0;fill:rgb(0, 0, 0);stroke:rgb(0, 0, 0);stroke-linecap:square;stroke-width:2" />
	<line x1="570" y1="200" x2="570" y2="220" style="stroke:rgb(0, 0, 0);stroke-linecap:square;stroke-width:2" />
	<line x1="490" y1="140" x2="490" y2="180" style="stroke:rgb(0, 0, 0);stroke-linecap:square;stroke-width:2" />
	<line x1="490" y1="120" x2="505" y2="120" style="stroke:rgb(0, 0, 0);stroke-linecap:square;stroke-width:2" />
	<line x1="490" y1="140" x2="505" y2="140" style="stroke:rgb(0, 0, 0);stroke-linecap:square;stroke-width:2" />
	<path d="M 505,120 M 505,110 L 505,150 L 529,150 M 505,110 L 529,110 M 529,150 A 5,5 90 0 0 529,110" style="fill-opacity:0;fill:rgb(0, 0, 0);stroke:rgb(0, 0, 0);stroke-linecap:square;stroke-width:2" />
	<line x1="551" y1="130" x2="560" y2="130" style="stroke:rgb(0, 0, 0);stroke-linecap:square;stroke-width:2" />
	<line x1="490" y1="80" x2="490" y2="120" style="stroke:rgb(0, 0, 0);stroke-linecap:square;stroke-width:2" />
	<line x1="470" y1="90" x2="500" y2="90" style="stroke:rgb(0, 0, 0);stroke-linecap:square;stroke-width:2" />
	<line x1="450" y1="70" x2="500" y2="70" style="stroke:rgb(0, 0, 0);stroke-linecap:square;stroke-width:2" />
	<line x1="460" y1="180" x2="490" y2="180" style="stroke:rgb(0, 0, 0);stroke-linecap:square;stroke-width:2" />
	<line x1="460" y1="80" x2="490" y2="80" style="stroke:rgb(0, 0, 0);stroke-linecap:square;stroke-width:2" />
	<line x1="500" y1="70" x2="520" y2="70" style="stroke:rgb(0, 0, 0);stroke-linecap:square;stroke-width:2" />
	<line x1="500" y1="90" x2="520" y2="90" style="stroke:rgb(0, 0, 0);stroke-linecap:square;stroke-width:2" />
	<path d="M 520,70 M 520,60 L 520,100 L 544,100 M 520,60 L 544,60 M 544,100 A 5,5 90 0 0 544,60" style="fill-opacity:0;fill:rgb(0, 0, 0);stroke:rgb(0, 0, 0);stroke-linecap:square;stroke-width:2" />
	<line x1="566" y1="80" x2="580" y2="80" style="stroke:rgb(0, 0, 0);stroke-linecap:square;stroke-width:2" />
	<line x1="430" y1="180" x2="460" y2="180" style="stroke:rgba(100, 149, 237, 255);stroke-linecap:square;stroke-width:2" />
	<line x1="430" y1="100" x2="430" y2="180" style="stroke:rgba(100, 149, 237, 255);stroke-linecap:square;stroke-width:2" />
	<line x1="410" y1="100" x2="430" y2="100" style="stroke:rgba(100, 149, 237, 255);stroke-linecap:square;stroke-width:2" />
	<line x1="390" y1="80" x2="397" y2="80" style="stroke:rgb(0, 0, 0);stroke-linecap:square;stroke-width:2" />
	<path d="M 399,70 M 399,80 L 399,98 L 427,80 L 399,62 L 399,80 M 427,80 A 2,2 -5 1 1 433,80 A 2,2 -5 1 1 427,80" style="fill-opacity:0;fill:rgb(0, 0, 0);stroke:rgb(0, 0, 0);stroke-linecap:square;stroke-width:2" />
	<line x1="435" y1="80" x2="460" y2="80" style="stroke:rgb(0, 0, 0);stroke-linecap:square;stroke-width:2" />
	<text x="570" y="505" style="font-family:Arial;font-size:12px;text-anchor:middle" dominant-baseline="hanging" transform="rotate(0, 570, 505)"></text>
	<line x1="570" y1="220" x2="570" y2="497" style="stroke:rgb(0, 0, 0);stroke-linecap:square;stroke-width:2" />
	<ellipse cx="570" cy="500" rx="3" ry="3" style="fill-opacity:0;fill:rgb(0, 0, 0);stroke:rgb(0, 0, 0);stroke-width:2" />
	<text x="530" y="505" style="font-family:Arial;font-size:12px;text-anchor:middle" dominant-baseline="hanging" transform="rotate(0, 530, 505)"></text>
	<line x1="530" y1="370" x2="530" y2="497" style="stroke:rgb(0, 0, 0);stroke-linecap:square;stroke-width:2" />
	<ellipse cx="530" cy="500" rx="3" ry="3" style="fill-opacity:0;fill:rgb(0, 0, 0);stroke:rgb(0, 0, 0);stroke-width:2" />
	<line x1="270" y1="410" x2="270" y2="420" style="stroke:rgb(0, 0, 0);stroke-linecap:square;stroke-width:2" />
	<text x="450" y="45" style="font-family:Arial;font-size:12px;text-anchor:middle" dominant-baseline="baseline" transform="rotate(0, 450, 45)"></text>
	<line x1="450" y1="53" x2="450" y2="100" style="stroke:rgb(0, 0, 0);stroke-linecap:square;stroke-width:2" />
	<ellipse cx="450" cy="50" rx="3" ry="3" style="fill-opacity:0;fill:rgb(0, 0, 0);stroke:rgb(0, 0, 0);stroke-width:2" />
	<line x1="390" y1="100" x2="390" y2="120" style="stroke:rgba(100, 149, 237, 255);stroke-linecap:square;stroke-width:2" />
	<line x1="410" y1="100" x2="410" y2="120" style="stroke:rgba(100, 149, 237, 255);stroke-linecap:square;stroke-width:2" />
	<path d="M 390,114 M 380,114 Q 400,134 420,114 M 380,122 Q 400,142 420,122 M 420,121 Q 415,156 400,171 Q 385,156 380,121" style="fill-opacity:0;fill:rgba(100, 149, 237, 255);stroke:rgba(100, 149, 237, 255);stroke-linecap:square;stroke-width:2" />
	<line x1="400" y1="170" x2="400" y2="180" style="stroke:rgba(100, 149, 237, 255);stroke-linecap:square;stroke-width:2" />
	<line x1="450" y1="100" x2="450" y2="120" style="stroke:rgba(100, 149, 237, 255);stroke-linecap:square;stroke-width:2" />
	<line x1="470" y1="100" x2="470" y2="120" style="stroke:rgba(100, 149, 237, 255);stroke-linecap:square;stroke-width:2" />
	<path d="M 450,114 M 440,114 Q 460,134 480,114 M 440,122 Q 460,142 480,122 M 480,121 Q 475,156 460,171 Q 445,156 440,121" style="fill-opacity:0;fill:rgba(100, 149, 237, 255);stroke:rgba(100, 149, 237, 255);stroke-linecap:square;stroke-width:2" />
	<line x1="460" y1="170" x2="460" y2="180" style="stroke:rgba(100, 149, 237, 255);stroke-linecap:square;stroke-width:2" />
	<line x1="230" y1="80" x2="230" y2="120" style="stroke:rgb(0, 0, 0);stroke-linecap:square;stroke-width:2" />
	<text x="470" y="45" style="font-family:Arial;font-size:12px;text-anchor:middle" dominant-baseline="baseline" transform="rotate(0, 470, 45)"></text>
	<line x1="470" y1="53" x2="470" y2="100" style="stroke:rgb(0, 0, 0);stroke-linecap:square;stroke-width:2" />
	<ellipse cx="470" cy="50" rx="3" ry="3" style="fill-opacity:0;fill:rgb(0, 0, 0);stroke:rgb(0, 0, 0);stroke-width:2" />
	<text x="390" y="45" style="font-family:Arial;font-size:12px;text-anchor:middle" dominant-baseline="baseline" transform="rotate(0, 390, 45)"></text>
	<line x1="390" y1="53" x2="390" y2="100" style="stroke:rgb(0, 0, 0);stroke-linecap:square;stroke-width:2" />
	<ellipse cx="390" cy="50" rx="3" ry="3" style="fill-opacity:0;fill:rgb(0, 0, 0);stroke:rgb(0, 0, 0);stroke-width:2" />
	<line x1="150" y1="80" x2="157" y2="80" style="stroke:rgb(0, 0, 0);stroke-linecap:square;stroke-width:2" />
	<path d="M 159,70 M 159,80 L 159,98 L 187,80 L 159,62 L 159,80 M 187,80 A 2,2 -5 1 1 193,80 A 2,2 -5 1 1 187,80" style="fill-opacity:0;fill:rgb(0, 0, 0);stroke:rgb(0, 0, 0);stroke-linecap:square;stroke-width:2" />
	<line x1="195" y1="80" x2="220" y2="80" style="stroke:rgb(0, 0, 0);stroke-linecap:square;stroke-width:2" />
	<line x1="230" y1="120" x2="245" y2="120" style="stroke:rgb(0, 0, 0);stroke-linecap:square;stroke-width:2" />
	<line x1="230" y1="140" x2="245" y2="140" style="stroke:rgb(0, 0, 0);stroke-linecap:square;stroke-width:2" />
	<path d="M 245,120 M 245,110 L 245,150 L 269,150 M 245,110 L 269,110 M 269,150 A 5,5 90 0 0 269,110" style="fill-opacity:0;fill:rgb(0, 0, 0);stroke:rgb(0, 0, 0);stroke-linecap:square;stroke-width:2" />
	<line x1="291" y1="130" x2="300" y2="130" style="stroke:rgb(0, 0, 0);stroke-linecap:square;stroke-width:2" />
	<text x="300" y="505" style="font-family:Arial;font-size:12px;text-anchor:middle" dominant-baseline="hanging" transform="rotate(0, 300, 505)"></text>
	<line x1="300" y1="130" x2="300" y2="497" style="stroke:rgb(0, 0, 0);stroke-linecap:square;stroke-width:2" />
	<ellipse cx="300" cy="500" rx="3" ry="3" style="fill-opacity:0;fill:rgb(0, 0, 0);stroke:rgb(0, 0, 0);stroke-width:2" />
	<line x1="210" y1="370" x2="230" y2="370" style="stroke:rgb(0, 0, 0);stroke-linecap:square;stroke-width:2" />
	<line x1="210" y1="310" x2="210" y2="370" style="stroke:rgb(0, 0, 0);stroke-linecap:square;stroke-width:2" />
	<line x1="230" y1="370" x2="230" y2="390" style="stroke:rgb(0, 0, 0);stroke-linecap:square;stroke-width:2" />
	<text x="60" y="400" style="font-family:Arial;font-size:11px;text-anchor:start" dominant-baseline="middle" transform="rotate(0, 60, 400)">Output control</text>
	<text x="60" y="220" style="font-family:Arial;font-size:11px;text-anchor:start" dominant-baseline="middle" transform="rotate(0, 60, 220)">Memory access</text>
	<text x="60" y="500" style="font-family:Arial;font-size:11px;text-anchor:start" dominant-baseline="middle" transform="rotate(0, 60, 500)">Output</text>
	<text x="60" y="200" style="font-family:Arial;font-size:11px;text-anchor:start" dominant-baseline="middle" transform="rotate(0, 60, 200)">Memory unit</text>
	<text x="60" y="80" style="font-family:Arial;font-size:11px;text-anchor:start" dominant-baseline="middle" transform="rotate(0, 60, 80)">Compute unit</text>
	<text x="60" y="50" style="font-family:Arial;font-size:11px;text-anchor:start" dominant-baseline="middle" transform="rotate(0, 60, 50)">Input</text>
	<line x1="250" y1="390" x2="250" y2="420" style="stroke:rgb(0, 0, 0);stroke-linecap:square;stroke-width:2" />
	<line x1="190" y1="310" x2="210" y2="310" style="stroke:rgb(0, 0, 0);stroke-linecap:square;stroke-width:2" />
	<text x="260" y="505" style="font-family:Arial;font-size:12px;text-anchor:middle" dominant-baseline="hanging" transform="rotate(0, 260, 505)"></text>
	<line x1="260" y1="490" x2="260" y2="497" style="stroke:rgb(0, 0, 0);stroke-linecap:square;stroke-width:2" />
	<ellipse cx="260" cy="500" rx="3" ry="3" style="fill-opacity:0;fill:rgb(0, 0, 0);stroke:rgb(0, 0, 0);stroke-width:2" />
	<line x1="250" y1="230" x2="250" y2="240" style="stroke:rgb(0, 0, 0);stroke-linecap:square;stroke-width:2" />
	<line x1="250" y1="420" x2="250" y2="435" style="stroke:rgb(0, 0, 0);stroke-linecap:square;stroke-width:2" />
	<line x1="270" y1="420" x2="270" y2="435" style="stroke:rgb(0, 0, 0);stroke-linecap:square;stroke-width:2" />
	<path d="M 250,435 M 240,435 L 280,435 L 280,459 M 240,435 L 240,459 A 5,5 90 0 0 280,459" style="fill-opacity:0;fill:rgb(0, 0, 0);stroke:rgb(0, 0, 0);stroke-linecap:square;stroke-width:2" />
	<line x1="260" y1="480" x2="260" y2="490" style="stroke:rgb(0, 0, 0);stroke-linecap:square;stroke-width:2" />
	<text x="52" y="410" style="font-family:Arial;font-size:12px;text-anchor:end" dominant-baseline="middle" transform="rotate(0, 52, 410)">wA</text>
	<line x1="63" y1="410" x2="590" y2="410" style="stroke:rgb(0, 0, 0);stroke-linecap:square;stroke-width:2" />
	<ellipse cx="60" cy="410" rx="3" ry="3" style="fill-opacity:0;fill:rgb(0, 0, 0);stroke:rgb(0, 0, 0);stroke-width:2" />
	<line x1="180" y1="230" x2="180" y2="240" style="stroke:rgb(0, 0, 0);stroke-linecap:square;stroke-width:2" />
	<line x1="220" y1="310" x2="240" y2="310" style="stroke:rgb(0, 0, 0);stroke-linecap:square;stroke-width:2" />
	<line x1="220" y1="310" x2="220" y2="390" style="stroke:rgb(0, 0, 0);stroke-linecap:square;stroke-width:2" />
	<line x1="230" y1="390" x2="250" y2="390" style="stroke:rgb(0, 0, 0);stroke-linecap:square;stroke-width:2" />
	<line x1="180" y1="390" x2="220" y2="390" style="stroke:rgb(0, 0, 0);stroke-linecap:square;stroke-width:2" />
	<line x1="240" y1="310" x2="240" y2="330" style="stroke:rgb(0, 0, 0);stroke-linecap:square;stroke-width:2" />
	<line x1="260" y1="310" x2="260" y2="330" style="stroke:rgb(0, 0, 0);stroke-linecap:square;stroke-width:2" />
	<path d="M 240,324 M 230,324 Q 250,344 270,324 M 270,323 Q 265,358 250,373 Q 235,358 230,323 M 250,374 A 2,2 5 0 0 250,380 A 2,2 5 0 0 250,374" style="fill-opacity:0;fill:rgb(0, 0, 0);stroke:rgb(0, 0, 0);stroke-linecap:square;stroke-width:2" />
	<line x1="250" y1="380" x2="250" y2="390" style="stroke:rgb(0, 0, 0);stroke-linecap:square;stroke-width:2" />
	<line x1="170" y1="310" x2="170" y2="330" style="stroke:rgb(0, 0, 0);stroke-linecap:square;stroke-width:2" />
	<line x1="190" y1="310" x2="190" y2="330" style="stroke:rgb(0, 0, 0);stroke-linecap:square;stroke-width:2" />
	<path d="M 170,324 M 160,324 Q 180,344 200,324 M 200,323 Q 195,358 180,373 Q 165,358 160,323 M 180,374 A 2,2 5 0 0 180,380 A 2,2 5 0 0 180,374" style="fill-opacity:0;fill:rgb(0, 0, 0);stroke:rgb(0, 0, 0);stroke-linecap:square;stroke-width:2" />
	<line x1="180" y1="380" x2="180" y2="390" style="stroke:rgb(0, 0, 0);stroke-linecap:square;stroke-width:2" />
	<text x="52" y="230" style="font-family:Arial;font-size:12px;text-anchor:end" dominant-baseline="middle" transform="rotate(0, 52, 230)">wB</text>
	<line x1="63" y1="230" x2="590" y2="230" style="stroke:rgb(0, 0, 0);stroke-linecap:square;stroke-width:2" />
	<ellipse cx="60" cy="230" rx="3" ry="3" style="fill-opacity:0;fill:rgb(0, 0, 0);stroke:rgb(0, 0, 0);stroke-width:2" />
	<line x1="250" y1="240" x2="250" y2="255" style="stroke:rgb(0, 0, 0);stroke-linecap:square;stroke-width:2" />
	<line x1="270" y1="240" x2="270" y2="255" style="stroke:rgb(0, 0, 0);stroke-linecap:square;stroke-width:2" />
	<path d="M 250,255 M 240,255 L 280,255 L 280,279 M 240,255 L 240,279 A 5,5 90 0 0 280,279" style="fill-opacity:0;fill:rgb(0, 0, 0);stroke:rgb(0, 0, 0);stroke-linecap:square;stroke-width:2" />
	<line x1="260" y1="300" x2="260" y2="310" style="stroke:rgb(0, 0, 0);stroke-linecap:square;stroke-width:2" />
	<line x1="160" y1="240" x2="160" y2="255" style="stroke:rgb(0, 0, 0);stroke-linecap:square;stroke-width:2" />
	<line x1="180" y1="240" x2="180" y2="255" style="stroke:rgb(0, 0, 0);stroke-linecap:square;stroke-width:2" />
	<path d="M 160,255 M 150,255 L 190,255 L 190,279 M 150,255 L 150,279 A 5,5 90 0 0 190,279" style="fill-opacity:0;fill:rgb(0, 0, 0);stroke:rgb(0, 0, 0);stroke-linecap:square;stroke-width:2" />
	<line x1="170" y1="300" x2="170" y2="310" style="stroke:rgb(0, 0, 0);stroke-linecap:square;stroke-width:2" />
	<line x1="270" y1="200" x2="270" y2="240" style="stroke:rgb(0, 0, 0);stroke-linecap:square;stroke-width:2" />
	<line x1="160" y1="200" x2="187" y2="200" style="stroke:rgb(0, 0, 0);stroke-linecap:square;stroke-width:2" />
	<path d="M 189,190 M 189,200 L 189,218 L 217,200 L 189,182 L 189,200 M 217,200 A 2,2 -5 1 1 223,200 A 2,2 -5 1 1 217,200" style="fill-opacity:0;fill:rgb(0, 0, 0);stroke:rgb(0, 0, 0);stroke-linecap:square;stroke-width:2" />
	<line x1="225" y1="200" x2="270" y2="200" style="stroke:rgb(0, 0, 0);stroke-linecap:square;stroke-width:2" />
	<line x1="150" y1="100" x2="150" y2="120" style="stroke:rgb(0, 0, 0);stroke-linecap:square;stroke-width:2" />
	<line x1="170" y1="100" x2="170" y2="120" style="stroke:rgb(0, 0, 0);stroke-linecap:square;stroke-width:2" />
	<path d="M 150,114 M 140,114 Q 160,134 180,114 M 140,122 Q 160,142 180,122 M 180,121 Q 175,156 160,171 Q 145,156 140,121" style="fill-opacity:0;fill:rgb(0, 0, 0);stroke:rgb(0, 0, 0);stroke-linecap:square;stroke-width:2" />
	<line x1="160" y1="170" x2="160" y2="180" style="stroke:rgb(0, 0, 0);stroke-linecap:square;stroke-width:2" />
	<text x="210" y="45" style="font-family:Arial;font-size:12px;text-anchor:middle" dominant-baseline="baseline" transform="rotate(0, 210, 45)"></text>
	<line x1="210" y1="53" x2="210" y2="140" style="stroke:rgb(0, 0, 0);stroke-linecap:square;stroke-width:2" />
	<ellipse cx="210" cy="50" rx="3" ry="3" style="fill-opacity:0;fill:rgb(0, 0, 0);stroke:rgb(0, 0, 0);stroke-width:2" />
	<text x="150" y="45" style="font-family:Arial;font-size:12px;text-anchor:middle" dominant-baseline="baseline" transform="rotate(0, 150, 45)"></text>
	<line x1="150" y1="53" x2="150" y2="100" style="stroke:rgb(0, 0, 0);stroke-linecap:square;stroke-width:2" />
	<ellipse cx="150" cy="50" rx="3" ry="3" style="fill-opacity:0;fill:rgb(0, 0, 0);stroke:rgb(0, 0, 0);stroke-width:2" />
	<ellipse cx="160" cy="200" rx="2" ry="2" style="fill-opacity:1;fill:rgb(0, 0, 0);stroke:rgb(0, 0, 0);stroke-width:2" />
	<ellipse cx="450" cy="230" rx="2" ry="2" style="fill-opacity:1;fill:rgb(0, 0, 0);stroke:rgb(0, 0, 0);stroke-width:2" />
	<ellipse cx="420" cy="410" rx="2" ry="2" style="fill-opacity:1;fill:rgb(0, 0, 0);stroke:rgb(0, 0, 0);stroke-width:2" />
	<ellipse cx="210" cy="100" rx="2" ry="2" style="fill-opacity:1;fill:rgb(0, 0, 0);stroke:rgb(0, 0, 0);stroke-width:2" />
	<ellipse cx="470" cy="90" rx="2" ry="2" style="fill-opacity:1;fill:rgb(0, 0, 0);stroke:rgb(0, 0, 0);stroke-width:2" />
	<ellipse cx="450" cy="70" rx="2" ry="2" style="fill-opacity:1;fill:rgb(0, 0, 0);stroke:rgb(0, 0, 0);stroke-width:2" />
	<ellipse cx="460" cy="180" rx="2" ry="2" style="fill-opacity:1;fill:rgba(100, 149, 237, 255);stroke:rgba(100, 149, 237, 255);stroke-width:2" />
	<ellipse cx="390" cy="80" rx="2" ry="2" style="fill-opacity:1;fill:rgb(0, 0, 0);stroke:rgb(0, 0, 0);stroke-width:2" />
	<ellipse cx="270" cy="410" rx="2" ry="2" style="fill-opacity:1;fill:rgb(0, 0, 0);stroke:rgb(0, 0, 0);stroke-width:2" />
	<ellipse cx="150" cy="80" rx="2" ry="2" style="fill-opacity:1;fill:rgb(0, 0, 0);stroke:rgb(0, 0, 0);stroke-width:2" />
	<ellipse cx="250" cy="390" rx="2" ry="2" style="fill-opacity:1;fill:rgb(0, 0, 0);stroke:rgb(0, 0, 0);stroke-width:2" />
	<ellipse cx="250" cy="230" rx="2" ry="2" style="fill-opacity:1;fill:rgb(0, 0, 0);stroke:rgb(0, 0, 0);stroke-width:2" />
	<ellipse cx="180" cy="230" rx="2" ry="2" style="fill-opacity:1;fill:rgb(0, 0, 0);stroke:rgb(0, 0, 0);stroke-width:2" />
</svg>