<?xml version="1.0" encoding="utf-8"?>
<!-- Generator: Circuit Diagram, cdlibrary.dll 1.0.0.0 -->
<!DOCTYPE svg PUBLIC "-//W3C//DTD SVG 1.1//EN" "http://www.w3.org/Graphics/SVG/1.1/DTD/svg11.dtd">
<svg version="1.1" width="600" height="560" xmlns="http://www.w3.org/2000/svg">
	<text x="430" y="30" style="font-family:Arial;font-size:11px;text-anchor:start" dominant-baseline="middle" transform="rotate(0, 430, 30)">c1</text>
	<text x="410" y="30" style="font-family:Arial;font-size:11px;text-anchor:start" dominant-baseline="middle" transform="rotate(0, 410, 30)">r1</text>
	<text x="350" y="30" style="font-family:Arial;font-size:11px;text-anchor:start" dominant-baseline="middle" transform="rotate(0, 350, 30)">s1</text>
	<text x="200" y="30" style="font-family:Arial;font-size:11px;text-anchor:start" dominant-baseline="middle" transform="rotate(0, 200, 30)">r0</text>
	<text x="140" y="30" style="font-family:Arial;font-size:11px;text-anchor:start" dominant-baseline="middle" transform="rotate(0, 140, 30)">s0</text>
	<text x="540" y="520" style="font-family:Arial;font-size:11px;text-anchor:start" dominant-baseline="middle" transform="rotate(0, 540, 520)">c2</text>
	<text x="490" y="520" style="font-family:Arial;font-size:11px;text-anchor:start" dominant-baseline="middle" transform="rotate(0, 490, 520)">d1</text>
	<text x="280" y="520" style="font-family:Arial;font-size:11px;text-anchor:start" dominant-baseline="middle" transform="rotate(0, 280, 520)">c1</text>
	<text x="230" y="520" style="font-family:Arial;font-size:11px;text-anchor:start" dominant-baseline="middle" transform="rotate(0, 230, 520)">d0</text>
	<line x1="430" y1="240" x2="430" y2="260" style="stroke:rgb(0, 0, 0);stroke-linecap:square;stroke-width:2" />
	<text x="410" y="270" style="fill: rgba(255, 0, 0, 255);font-family:Arial;font-size:11px;text-anchor:start" dominant-baseline="middle" transform="rotate(0, 410, 270)">Int</text>
	<line x1="510" y1="360" x2="510" y2="380" style="stroke:rgba(255, 0, 0, 255);stroke-linecap:square;stroke-width:2" />
	<text x="470" y="320" style="fill: rgba(255, 0, 0, 255);font-family:Arial;font-size:11px;text-anchor:start" dominant-baseline="middle" transform="rotate(0, 470, 320)">bistable relay</text>
	<line x1="400" y1="350" x2="400" y2="420" style="stroke:rgba(255, 0, 0, 255);stroke-linecap:square;stroke-width:2" />
	<line x1="420" y1="380" x2="460" y2="380" style="stroke:rgba(255, 0, 0, 255);stroke-linecap:square;stroke-width:2" />
	<line x1="420" y1="320" x2="420" y2="380" style="stroke:rgba(255, 0, 0, 255);stroke-linecap:square;stroke-width:2" />
	<line x1="460" y1="320" x2="460" y2="330" style="stroke:rgba(255, 0, 0, 255);stroke-linecap:square;stroke-width:2" />
	<line x1="440" y1="320" x2="460" y2="320" style="stroke:rgba(255, 0, 0, 255);stroke-linecap:square;stroke-width:2" />
	<line x1="400" y1="350" x2="443" y2="350" style="stroke:rgba(255, 0, 0, 255);stroke-linecap:square;stroke-width:2" />
	<line x1="460" y1="370" x2="460" y2="380" style="stroke:rgba(255, 0, 0, 255);stroke-linecap:square;stroke-width:2" />
	<rect x="440" y="330" width="40" height="40" style="fill-opacity:0;fill:rgba(255, 0, 0, 255);stroke:rgba(255, 0, 0, 255);stroke-width:2" />
	<ellipse cx="447" cy="350" rx="3" ry="3" style="fill-opacity:0;fill:rgba(255, 0, 0, 255);stroke:rgba(255, 0, 0, 255);stroke-width:2" />
	<ellipse cx="473" cy="340" rx="3" ry="3" style="fill-opacity:0;fill:rgba(255, 0, 0, 255);stroke:rgba(255, 0, 0, 255);stroke-width:2" />
	<ellipse cx="473" cy="360" rx="3" ry="3" style="fill-opacity:0;fill:rgba(255, 0, 0, 255);stroke:rgba(255, 0, 0, 255);stroke-width:2" />
	<line x1="477" y1="340" x2="510" y2="340" style="stroke:rgba(255, 0, 0, 255);stroke-linecap:square;stroke-width:2" />
	<line x1="477" y1="360" x2="510" y2="360" style="stroke:rgba(255, 0, 0, 255);stroke-linecap:square;stroke-width:2" />
	<line x1="450" y1="350" x2="470" y2="340" style="stroke:rgba(255, 0, 0, 255);stroke-linecap:square;stroke-width:2" />
	<path d="M 469,341 L 465,345 L 463,341 L 469,340" style="fill-opacity:1;fill:rgba(255, 0, 0, 255);stroke:rgba(255, 0, 0, 255);stroke-linecap:square;stroke-width:2" />
	<text x="440" y="290" style="fill: rgba(255, 0, 0, 255);font-family:Arial;font-size:11px;text-anchor:start" dominant-baseline="middle" transform="rotate(0, 440, 290)">NC</text>
	<line x1="430" y1="260" x2="430" y2="276" style="stroke:rgba(255, 0, 0, 255);stroke-linecap:square;stroke-width:2" />
	<line x1="420" y1="304" x2="420" y2="320" style="stroke:rgba(255, 0, 0, 255);stroke-linecap:square;stroke-width:2" />
	<line x1="440" y1="304" x2="440" y2="320" style="stroke:rgba(255, 0, 0, 255);stroke-linecap:square;stroke-width:2" />
	<line x1="432" y1="282" x2="439" y2="298" style="stroke:rgba(255, 0, 0, 255);stroke-linecap:square;stroke-width:2" />
	<ellipse cx="430" cy="279" rx="3" ry="3" style="fill-opacity:0;fill:rgba(255, 0, 0, 255);stroke:rgba(255, 0, 0, 255);stroke-width:2" />
	<ellipse cx="420" cy="301" rx="3" ry="3" style="fill-opacity:0;fill:rgba(255, 0, 0, 255);stroke:rgba(255, 0, 0, 255);stroke-width:2" />
	<ellipse cx="440" cy="301" rx="3" ry="3" style="fill-opacity:0;fill:rgba(255, 0, 0, 255);stroke:rgba(255, 0, 0, 255);stroke-width:2" />
	<line x1="370" y1="300" x2="405" y2="300" style="stroke:rgba(255, 0, 0, 255);stroke-linecap:square;stroke-width:2" />
	<path d="M 405,300 L 405,297 L 410,300 L 405,303 L 405,300" style="fill-opacity:1;fill:rgba(255, 0, 0, 255);stroke:rgba(255, 0, 0, 255);stroke-linecap:square;stroke-width:2" />
	<text x="390" y="288" style="fill: rgba(255, 0, 0, 255);font-family:Arial;font-size:11px;text-anchor:middle" dominant-baseline="middle" transform="rotate(0, 390, 288)">Xis</text>
	<line x1="370" y1="180" x2="370" y2="300" style="stroke:rgb(0, 0, 0);stroke-linecap:square;stroke-width:2" />
	<line x1="210" y1="140" x2="230" y2="140" style="stroke:rgb(0, 0, 0);stroke-linecap:square;stroke-width:2" />
	<line x1="570" y1="80" x2="570" y2="130" style="stroke:rgb(0, 0, 0);stroke-linecap:square;stroke-width:2" />
	<line x1="550" y1="80" x2="570" y2="80" style="stroke:rgb(0, 0, 0);stroke-linecap:square;stroke-width:2" />
	<line x1="220" y1="80" x2="230" y2="80" style="stroke:rgb(0, 0, 0);stroke-linecap:square;stroke-width:2" />
	<line x1="170" y1="100" x2="210" y2="100" style="stroke:rgb(0, 0, 0);stroke-linecap:square;stroke-width:2" />
	<line x1="550" y1="130" x2="550" y2="160" style="stroke:rgb(0, 0, 0);stroke-linecap:square;stroke-width:2" />
	<line x1="570" y1="130" x2="570" y2="160" style="stroke:rgb(0, 0, 0);stroke-linecap:square;stroke-width:2" />
	<path d="M 550,154 M 540,154 Q 560,174 580,154 M 580,153 Q 575,188 560,203 Q 545,188 540,153" style="fill-opacity:0;fill:rgb(0, 0, 0);stroke:rgb(0, 0, 0);stroke-linecap:square;stroke-width:2" />
	<line x1="560" y1="205" x2="560" y2="230" style="stroke:rgb(0, 0, 0);stroke-linecap:square;stroke-width:2" />
	<line x1="470" y1="140" x2="480" y2="140" style="stroke:rgb(0, 0, 0);stroke-linecap:square;stroke-width:2" />
	<line x1="470" y1="120" x2="480" y2="120" style="stroke:rgb(0, 0, 0);stroke-linecap:square;stroke-width:2" />
	<line x1="470" y1="140" x2="470" y2="180" style="stroke:rgb(0, 0, 0);stroke-linecap:square;stroke-width:2" />
	<line x1="480" y1="120" x2="495" y2="120" style="stroke:rgb(0, 0, 0);stroke-linecap:square;stroke-width:2" />
	<line x1="480" y1="140" x2="495" y2="140" style="stroke:rgb(0, 0, 0);stroke-linecap:square;stroke-width:2" />
	<path d="M 495,120 M 495,110 L 495,150 L 519,150 M 495,110 L 519,110 M 519,150 A 5,5 90 0 0 519,110" style="fill-opacity:0;fill:rgb(0, 0, 0);stroke:rgb(0, 0, 0);stroke-linecap:square;stroke-width:2" />
	<line x1="541" y1="130" x2="550" y2="130" style="stroke:rgb(0, 0, 0);stroke-linecap:square;stroke-width:2" />
	<line x1="470" y1="80" x2="470" y2="120" style="stroke:rgb(0, 0, 0);stroke-linecap:square;stroke-width:2" />
	<line x1="440" y1="90" x2="480" y2="90" style="stroke:rgb(0, 0, 0);stroke-linecap:square;stroke-width:2" />
	<line x1="420" y1="70" x2="480" y2="70" style="stroke:rgb(0, 0, 0);stroke-linecap:square;stroke-width:2" />
	<line x1="430" y1="180" x2="470" y2="180" style="stroke:rgb(0, 0, 0);stroke-linecap:square;stroke-width:2" />
	<line x1="430" y1="80" x2="470" y2="80" style="stroke:rgb(0, 0, 0);stroke-linecap:square;stroke-width:2" />
	<line x1="480" y1="70" x2="495" y2="70" style="stroke:rgb(0, 0, 0);stroke-linecap:square;stroke-width:2" />
	<line x1="480" y1="90" x2="495" y2="90" style="stroke:rgb(0, 0, 0);stroke-linecap:square;stroke-width:2" />
	<path d="M 495,70 M 495,60 L 495,100 L 519,100 M 495,60 L 519,60 M 519,100 A 5,5 90 0 0 519,60" style="fill-opacity:0;fill:rgb(0, 0, 0);stroke:rgb(0, 0, 0);stroke-linecap:square;stroke-width:2" />
	<line x1="541" y1="80" x2="550" y2="80" style="stroke:rgb(0, 0, 0);stroke-linecap:square;stroke-width:2" />
	<line x1="400" y1="180" x2="430" y2="180" style="stroke:rgba(100, 149, 237, 255);stroke-linecap:square;stroke-width:2" />
	<line x1="400" y1="100" x2="400" y2="180" style="stroke:rgba(100, 149, 237, 255);stroke-linecap:square;stroke-width:2" />
	<line x1="380" y1="100" x2="400" y2="100" style="stroke:rgba(100, 149, 237, 255);stroke-linecap:square;stroke-width:2" />
	<line x1="360" y1="80" x2="367" y2="80" style="stroke:rgb(0, 0, 0);stroke-linecap:square;stroke-width:2" />
	<path d="M 369,70 M 369,80 L 369,98 L 397,80 L 369,62 L 369,80 M 397,80 A 2,2 -5 1 1 403,80 A 2,2 -5 1 1 397,80" style="fill-opacity:0;fill:rgb(0, 0, 0);stroke:rgb(0, 0, 0);stroke-linecap:square;stroke-width:2" />
	<line x1="405" y1="80" x2="430" y2="80" style="stroke:rgb(0, 0, 0);stroke-linecap:square;stroke-width:2" />
	<text x="560" y="515" style="font-family:Arial;font-size:12px;text-anchor:middle" dominant-baseline="hanging" transform="rotate(0, 560, 515)"></text>
	<line x1="560" y1="230" x2="560" y2="507" style="stroke:rgb(0, 0, 0);stroke-linecap:square;stroke-width:2" />
	<ellipse cx="560" cy="510" rx="3" ry="3" style="fill-opacity:0;fill:rgb(0, 0, 0);stroke:rgb(0, 0, 0);stroke-width:2" />
	<line x1="160" y1="180" x2="170" y2="180" style="stroke:rgb(0, 0, 0);stroke-linecap:square;stroke-width:2" />
	<text x="510" y="515" style="font-family:Arial;font-size:12px;text-anchor:middle" dominant-baseline="hanging" transform="rotate(0, 510, 515)"></text>
	<line x1="510" y1="380" x2="510" y2="507" style="stroke:rgb(0, 0, 0);stroke-linecap:square;stroke-width:2" />
	<ellipse cx="510" cy="510" rx="3" ry="3" style="fill-opacity:0;fill:rgb(0, 0, 0);stroke:rgb(0, 0, 0);stroke-width:2" />
	<line x1="260" y1="420" x2="260" y2="430" style="stroke:rgb(0, 0, 0);stroke-linecap:square;stroke-width:2" />
	<text x="420" y="35" style="font-family:Arial;font-size:12px;text-anchor:middle" dominant-baseline="baseline" transform="rotate(0, 420, 35)"></text>
	<line x1="420" y1="43" x2="420" y2="100" style="stroke:rgb(0, 0, 0);stroke-linecap:square;stroke-width:2" />
	<ellipse cx="420" cy="40" rx="3" ry="3" style="fill-opacity:0;fill:rgb(0, 0, 0);stroke:rgb(0, 0, 0);stroke-width:2" />
	<line x1="360" y1="100" x2="360" y2="120" style="stroke:rgba(100, 149, 237, 255);stroke-linecap:square;stroke-width:2" />
	<line x1="380" y1="100" x2="380" y2="120" style="stroke:rgba(100, 149, 237, 255);stroke-linecap:square;stroke-width:2" />
	<path d="M 360,114 M 350,114 Q 370,134 390,114 M 350,122 Q 370,142 390,122 M 390,121 Q 385,156 370,171 Q 355,156 350,121" style="fill-opacity:0;fill:rgba(100, 149, 237, 255);stroke:rgba(100, 149, 237, 255);stroke-linecap:square;stroke-width:2" />
	<line x1="370" y1="170" x2="370" y2="180" style="stroke:rgba(100, 149, 237, 255);stroke-linecap:square;stroke-width:2" />
	<line x1="420" y1="100" x2="420" y2="120" style="stroke:rgba(100, 149, 237, 255);stroke-linecap:square;stroke-width:2" />
	<line x1="440" y1="100" x2="440" y2="120" style="stroke:rgba(100, 149, 237, 255);stroke-linecap:square;stroke-width:2" />
	<path d="M 420,114 M 410,114 Q 430,134 450,114 M 410,122 Q 430,142 450,122 M 450,121 Q 445,156 430,171 Q 415,156 410,121" style="fill-opacity:0;fill:rgba(100, 149, 237, 255);stroke:rgba(100, 149, 237, 255);stroke-linecap:square;stroke-width:2" />
	<line x1="430" y1="170" x2="430" y2="180" style="stroke:rgba(100, 149, 237, 255);stroke-linecap:square;stroke-width:2" />
	<line x1="230" y1="80" x2="230" y2="120" style="stroke:rgb(0, 0, 0);stroke-linecap:square;stroke-width:2" />
	<text x="440" y="35" style="font-family:Arial;font-size:12px;text-anchor:middle" dominant-baseline="baseline" transform="rotate(0, 440, 35)"></text>
	<line x1="440" y1="43" x2="440" y2="100" style="stroke:rgb(0, 0, 0);stroke-linecap:square;stroke-width:2" />
	<ellipse cx="440" cy="40" rx="3" ry="3" style="fill-opacity:0;fill:rgb(0, 0, 0);stroke:rgb(0, 0, 0);stroke-width:2" />
	<text x="360" y="35" style="font-family:Arial;font-size:12px;text-anchor:middle" dominant-baseline="baseline" transform="rotate(0, 360, 35)"></text>
	<line x1="360" y1="43" x2="360" y2="100" style="stroke:rgb(0, 0, 0);stroke-linecap:square;stroke-width:2" />
	<ellipse cx="360" cy="40" rx="3" ry="3" style="fill-opacity:0;fill:rgb(0, 0, 0);stroke:rgb(0, 0, 0);stroke-width:2" />
	<line x1="150" y1="80" x2="157" y2="80" style="stroke:rgb(0, 0, 0);stroke-linecap:square;stroke-width:2" />
	<path d="M 159,70 M 159,80 L 159,98 L 187,80 L 159,62 L 159,80 M 187,80 A 2,2 -5 1 1 193,80 A 2,2 -5 1 1 187,80" style="fill-opacity:0;fill:rgb(0, 0, 0);stroke:rgb(0, 0, 0);stroke-linecap:square;stroke-width:2" />
	<line x1="195" y1="80" x2="220" y2="80" style="stroke:rgb(0, 0, 0);stroke-linecap:square;stroke-width:2" />
	<line x1="230" y1="120" x2="245" y2="120" style="stroke:rgb(0, 0, 0);stroke-linecap:square;stroke-width:2" />
	<line x1="230" y1="140" x2="245" y2="140" style="stroke:rgb(0, 0, 0);stroke-linecap:square;stroke-width:2" />
	<path d="M 245,120 M 245,110 L 245,150 L 269,150 M 245,110 L 269,110 M 269,150 A 5,5 90 0 0 269,110" style="fill-opacity:0;fill:rgb(0, 0, 0);stroke:rgb(0, 0, 0);stroke-linecap:square;stroke-width:2" />
	<line x1="291" y1="130" x2="300" y2="130" style="stroke:rgb(0, 0, 0);stroke-linecap:square;stroke-width:2" />
	<text x="300" y="515" style="font-family:Arial;font-size:12px;text-anchor:middle" dominant-baseline="hanging" transform="rotate(0, 300, 515)"></text>
	<line x1="300" y1="130" x2="300" y2="507" style="stroke:rgb(0, 0, 0);stroke-linecap:square;stroke-width:2" />
	<ellipse cx="300" cy="510" rx="3" ry="3" style="fill-opacity:0;fill:rgb(0, 0, 0);stroke:rgb(0, 0, 0);stroke-width:2" />
	<line x1="200" y1="380" x2="220" y2="380" style="stroke:rgb(0, 0, 0);stroke-linecap:square;stroke-width:2" />
	<line x1="200" y1="320" x2="200" y2="380" style="stroke:rgb(0, 0, 0);stroke-linecap:square;stroke-width:2" />
	<line x1="220" y1="380" x2="220" y2="400" style="stroke:rgb(0, 0, 0);stroke-linecap:square;stroke-width:2" />
	<text x="60" y="410" style="font-family:Arial;font-size:11px;text-anchor:start" dominant-baseline="middle" transform="rotate(0, 60, 410)">Output control</text>
	<text x="60" y="230" style="font-family:Arial;font-size:11px;text-anchor:start" dominant-baseline="middle" transform="rotate(0, 60, 230)">Memory access</text>
	<text x="60" y="510" style="font-family:Arial;font-size:11px;text-anchor:start" dominant-baseline="middle" transform="rotate(0, 60, 510)">Output</text>
	<text x="60" y="180" style="font-family:Arial;font-size:11px;text-anchor:start" dominant-baseline="middle" transform="rotate(0, 60, 180)">Memory unit</text>
	<text x="60" y="80" style="font-family:Arial;font-size:11px;text-anchor:start" dominant-baseline="middle" transform="rotate(0, 60, 80)">Compute unit</text>
	<text x="60" y="40" style="font-family:Arial;font-size:11px;text-anchor:start" dominant-baseline="middle" transform="rotate(0, 60, 40)">Input</text>
	<line x1="240" y1="400" x2="240" y2="430" style="stroke:rgb(0, 0, 0);stroke-linecap:square;stroke-width:2" />
	<line x1="180" y1="320" x2="200" y2="320" style="stroke:rgb(0, 0, 0);stroke-linecap:square;stroke-width:2" />
	<text x="250" y="515" style="font-family:Arial;font-size:12px;text-anchor:middle" dominant-baseline="hanging" transform="rotate(0, 250, 515)"></text>
	<line x1="250" y1="500" x2="250" y2="507" style="stroke:rgb(0, 0, 0);stroke-linecap:square;stroke-width:2" />
	<ellipse cx="250" cy="510" rx="3" ry="3" style="fill-opacity:0;fill:rgb(0, 0, 0);stroke:rgb(0, 0, 0);stroke-width:2" />
	<line x1="260" y1="240" x2="260" y2="250" style="stroke:rgb(0, 0, 0);stroke-linecap:square;stroke-width:2" />
	<line x1="240" y1="430" x2="240" y2="445" style="stroke:rgb(0, 0, 0);stroke-linecap:square;stroke-width:2" />
	<line x1="260" y1="430" x2="260" y2="445" style="stroke:rgb(0, 0, 0);stroke-linecap:square;stroke-width:2" />
	<path d="M 240,445 M 230,445 L 270,445 L 270,469 M 230,445 L 230,469 A 5,5 90 0 0 270,469" style="fill-opacity:0;fill:rgb(0, 0, 0);stroke:rgb(0, 0, 0);stroke-linecap:square;stroke-width:2" />
	<line x1="250" y1="490" x2="250" y2="500" style="stroke:rgb(0, 0, 0);stroke-linecap:square;stroke-width:2" />
	<text x="52" y="420" style="font-family:Arial;font-size:12px;text-anchor:end" dominant-baseline="middle" transform="rotate(0, 52, 420)">wA</text>
	<line x1="63" y1="420" x2="580" y2="420" style="stroke:rgb(0, 0, 0);stroke-linecap:square;stroke-width:2" />
	<ellipse cx="60" cy="420" rx="3" ry="3" style="fill-opacity:0;fill:rgb(0, 0, 0);stroke:rgb(0, 0, 0);stroke-width:2" />
	<line x1="150" y1="240" x2="150" y2="250" style="stroke:rgb(0, 0, 0);stroke-linecap:square;stroke-width:2" />
	<line x1="210" y1="320" x2="230" y2="320" style="stroke:rgb(0, 0, 0);stroke-linecap:square;stroke-width:2" />
	<line x1="210" y1="320" x2="210" y2="400" style="stroke:rgb(0, 0, 0);stroke-linecap:square;stroke-width:2" />
	<line x1="220" y1="400" x2="240" y2="400" style="stroke:rgb(0, 0, 0);stroke-linecap:square;stroke-width:2" />
	<line x1="170" y1="400" x2="210" y2="400" style="stroke:rgb(0, 0, 0);stroke-linecap:square;stroke-width:2" />
	<line x1="230" y1="320" x2="230" y2="340" style="stroke:rgb(0, 0, 0);stroke-linecap:square;stroke-width:2" />
	<line x1="250" y1="320" x2="250" y2="340" style="stroke:rgb(0, 0, 0);stroke-linecap:square;stroke-width:2" />
	<path d="M 230,334 M 220,334 Q 240,354 260,334 M 260,333 Q 255,368 240,383 Q 225,368 220,333 M 240,384 A 2,2 5 0 0 240,390 A 2,2 5 0 0 240,384" style="fill-opacity:0;fill:rgb(0, 0, 0);stroke:rgb(0, 0, 0);stroke-linecap:square;stroke-width:2" />
	<line x1="240" y1="390" x2="240" y2="400" style="stroke:rgb(0, 0, 0);stroke-linecap:square;stroke-width:2" />
	<line x1="170" y1="180" x2="240" y2="180" style="stroke:rgb(0, 0, 0);stroke-linecap:square;stroke-width:2" />
	<line x1="160" y1="320" x2="160" y2="340" style="stroke:rgb(0, 0, 0);stroke-linecap:square;stroke-width:2" />
	<line x1="180" y1="320" x2="180" y2="340" style="stroke:rgb(0, 0, 0);stroke-linecap:square;stroke-width:2" />
	<path d="M 160,334 M 150,334 Q 170,354 190,334 M 190,333 Q 185,368 170,383 Q 155,368 150,333 M 170,384 A 2,2 5 0 0 170,390 A 2,2 5 0 0 170,384" style="fill-opacity:0;fill:rgb(0, 0, 0);stroke:rgb(0, 0, 0);stroke-linecap:square;stroke-width:2" />
	<line x1="170" y1="390" x2="170" y2="400" style="stroke:rgb(0, 0, 0);stroke-linecap:square;stroke-width:2" />
	<text x="52" y="240" style="font-family:Arial;font-size:12px;text-anchor:end" dominant-baseline="middle" transform="rotate(0, 52, 240)">wB</text>
	<line x1="63" y1="240" x2="580" y2="240" style="stroke:rgb(0, 0, 0);stroke-linecap:square;stroke-width:2" />
	<ellipse cx="60" cy="240" rx="3" ry="3" style="fill-opacity:0;fill:rgb(0, 0, 0);stroke:rgb(0, 0, 0);stroke-width:2" />
	<line x1="240" y1="250" x2="240" y2="265" style="stroke:rgb(0, 0, 0);stroke-linecap:square;stroke-width:2" />
	<line x1="260" y1="250" x2="260" y2="265" style="stroke:rgb(0, 0, 0);stroke-linecap:square;stroke-width:2" />
	<path d="M 240,265 M 230,265 L 270,265 L 270,289 M 230,265 L 230,289 A 5,5 90 0 0 270,289" style="fill-opacity:0;fill:rgb(0, 0, 0);stroke:rgb(0, 0, 0);stroke-linecap:square;stroke-width:2" />
	<line x1="250" y1="310" x2="250" y2="320" style="stroke:rgb(0, 0, 0);stroke-linecap:square;stroke-width:2" />
	<line x1="150" y1="250" x2="150" y2="265" style="stroke:rgb(0, 0, 0);stroke-linecap:square;stroke-width:2" />
	<line x1="170" y1="250" x2="170" y2="265" style="stroke:rgb(0, 0, 0);stroke-linecap:square;stroke-width:2" />
	<path d="M 150,265 M 140,265 L 180,265 L 180,289 M 140,265 L 140,289 A 5,5 90 0 0 180,289" style="fill-opacity:0;fill:rgb(0, 0, 0);stroke:rgb(0, 0, 0);stroke-linecap:square;stroke-width:2" />
	<line x1="160" y1="310" x2="160" y2="320" style="stroke:rgb(0, 0, 0);stroke-linecap:square;stroke-width:2" />
	<line x1="240" y1="180" x2="240" y2="250" style="stroke:rgb(0, 0, 0);stroke-linecap:square;stroke-width:2" />
	<line x1="170" y1="180" x2="170" y2="187" style="stroke:rgb(0, 0, 0);stroke-linecap:square;stroke-width:2" />
	<path d="M 160,189 M 170,189 L 188,189 L 170,217 L 152,189 L 170,189 M 170,217 A 2,2 5 0 0 170,223 A 2,2 5 0 0 170,217 M 170,223" style="fill-opacity:0;fill:rgb(0, 0, 0);stroke:rgb(0, 0, 0);stroke-linecap:square;stroke-width:2" />
	<line x1="170" y1="225" x2="170" y2="250" style="stroke:rgb(0, 0, 0);stroke-linecap:square;stroke-width:2" />
	<line x1="150" y1="100" x2="150" y2="120" style="stroke:rgb(0, 0, 0);stroke-linecap:square;stroke-width:2" />
	<line x1="170" y1="100" x2="170" y2="120" style="stroke:rgb(0, 0, 0);stroke-linecap:square;stroke-width:2" />
	<path d="M 150,114 M 140,114 Q 160,134 180,114 M 140,122 Q 160,142 180,122 M 180,121 Q 175,156 160,171 Q 145,156 140,121" style="fill-opacity:0;fill:rgb(0, 0, 0);stroke:rgb(0, 0, 0);stroke-linecap:square;stroke-width:2" />
	<line x1="160" y1="170" x2="160" y2="180" style="stroke:rgb(0, 0, 0);stroke-linecap:square;stroke-width:2" />
	<text x="210" y="35" style="font-family:Arial;font-size:12px;text-anchor:middle" dominant-baseline="baseline" transform="rotate(0, 210, 35)"></text>
	<line x1="210" y1="43" x2="210" y2="140" style="stroke:rgb(0, 0, 0);stroke-linecap:square;stroke-width:2" />
	<ellipse cx="210" cy="40" rx="3" ry="3" style="fill-opacity:0;fill:rgb(0, 0, 0);stroke:rgb(0, 0, 0);stroke-width:2" />
	<text x="150" y="35" style="font-family:Arial;font-size:12px;text-anchor:middle" dominant-baseline="baseline" transform="rotate(0, 150, 35)"></text>
	<line x1="150" y1="43" x2="150" y2="100" style="stroke:rgb(0, 0, 0);stroke-linecap:square;stroke-width:2" />
	<ellipse cx="150" cy="40" rx="3" ry="3" style="fill-opacity:0;fill:rgb(0, 0, 0);stroke:rgb(0, 0, 0);stroke-width:2" />
	<ellipse cx="430" cy="240" rx="2" ry="2" style="fill-opacity:1;fill:rgb(0, 0, 0);stroke:rgb(0, 0, 0);stroke-width:2" />
	<ellipse cx="400" cy="420" rx="2" ry="2" style="fill-opacity:1;fill:rgb(0, 0, 0);stroke:rgb(0, 0, 0);stroke-width:2" />
	<ellipse cx="210" cy="100" rx="2" ry="2" style="fill-opacity:1;fill:rgb(0, 0, 0);stroke:rgb(0, 0, 0);stroke-width:2" />
	<ellipse cx="440" cy="90" rx="2" ry="2" style="fill-opacity:1;fill:rgb(0, 0, 0);stroke:rgb(0, 0, 0);stroke-width:2" />
	<ellipse cx="420" cy="70" rx="2" ry="2" style="fill-opacity:1;fill:rgb(0, 0, 0);stroke:rgb(0, 0, 0);stroke-width:2" />
	<ellipse cx="430" cy="180" rx="2" ry="2" style="fill-opacity:1;fill:rgba(100, 149, 237, 255);stroke:rgba(100, 149, 237, 255);stroke-width:2" />
	<ellipse cx="360" cy="80" rx="2" ry="2" style="fill-opacity:1;fill:rgb(0, 0, 0);stroke:rgb(0, 0, 0);stroke-width:2" />
	<ellipse cx="170" cy="180" rx="2" ry="2" style="fill-opacity:1;fill:rgb(0, 0, 0);stroke:rgb(0, 0, 0);stroke-width:2" />
	<ellipse cx="260" cy="420" rx="2" ry="2" style="fill-opacity:1;fill:rgb(0, 0, 0);stroke:rgb(0, 0, 0);stroke-width:2" />
	<ellipse cx="150" cy="80" rx="2" ry="2" style="fill-opacity:1;fill:rgb(0, 0, 0);stroke:rgb(0, 0, 0);stroke-width:2" />
	<ellipse cx="240" cy="400" rx="2" ry="2" style="fill-opacity:1;fill:rgb(0, 0, 0);stroke:rgb(0, 0, 0);stroke-width:2" />
	<ellipse cx="260" cy="240" rx="2" ry="2" style="fill-opacity:1;fill:rgb(0, 0, 0);stroke:rgb(0, 0, 0);stroke-width:2" />
	<ellipse cx="150" cy="240" rx="2" ry="2" style="fill-opacity:1;fill:rgb(0, 0, 0);stroke:rgb(0, 0, 0);stroke-width:2" />
</svg>