<?xml version="1.0" encoding="utf-8"?>
<!-- Generator: Circuit Diagram, cdlibrary.dll 1.0.0.0 -->
<!DOCTYPE svg PUBLIC "-//W3C//DTD SVG 1.1//EN" "http://www.w3.org/Graphics/SVG/1.1/DTD/svg11.dtd">
<svg version="1.1" width="300" height="580" xmlns="http://www.w3.org/2000/svg">
	<text x="60" y="440" style="font-family:Arial;font-size:11px;text-anchor:start" dominant-baseline="middle" transform="rotate(0, 60, 440)">Output control</text>
	<text x="60" y="240" style="font-family:Arial;font-size:11px;text-anchor:start" dominant-baseline="middle" transform="rotate(0, 60, 240)">Memory access</text>
	<text x="60" y="540" style="font-family:Arial;font-size:11px;text-anchor:start" dominant-baseline="middle" transform="rotate(0, 60, 540)">Output</text>
	<text x="60" y="340" style="font-family:Arial;font-size:11px;text-anchor:start" dominant-baseline="middle" transform="rotate(0, 60, 340)">Memory unit</text>
	<text x="60" y="140" style="font-family:Arial;font-size:11px;text-anchor:start" dominant-baseline="middle" transform="rotate(0, 60, 140)">Compute unit</text>
	<text x="60" y="40" style="font-family:Arial;font-size:11px;text-anchor:start" dominant-baseline="middle" transform="rotate(0, 60, 40)">Input</text>
	<line x1="170" y1="430" x2="170" y2="460" style="stroke:rgb(0, 0, 0);stroke-linecap:square;stroke-width:2" />
	<line x1="240" y1="340" x2="240" y2="350" style="stroke:rgb(0, 0, 0);stroke-linecap:square;stroke-width:2" />
	<line x1="260" y1="340" x2="260" y2="350" style="stroke:rgb(0, 0, 0);stroke-linecap:square;stroke-width:2" />
	<line x1="160" y1="340" x2="160" y2="350" style="stroke:rgb(0, 0, 0);stroke-linecap:square;stroke-width:2" />
	<line x1="180" y1="350" x2="220" y2="350" style="stroke:rgb(0, 0, 0);stroke-linecap:square;stroke-width:2" />
	<line x1="220" y1="90" x2="260" y2="90" style="stroke:rgb(0, 0, 0);stroke-linecap:square;stroke-width:2" />
	<line x1="160" y1="90" x2="200" y2="90" style="stroke:rgb(0, 0, 0);stroke-linecap:square;stroke-width:2" />
	<text x="160" y="545" style="font-family:Arial;font-size:12px;text-anchor:middle" dominant-baseline="hanging" transform="rotate(0, 160, 545)">s0'</text>
	<line x1="160" y1="530" x2="160" y2="537" style="stroke:rgb(0, 0, 0);stroke-linecap:square;stroke-width:2" />
	<ellipse cx="160" cy="540" rx="3" ry="3" style="fill-opacity:0;fill:rgb(0, 0, 0);stroke:rgb(0, 0, 0);stroke-width:2" />
	<line x1="270" y1="260" x2="270" y2="270" style="stroke:rgb(0, 0, 0);stroke-linecap:square;stroke-width:2" />
	<line x1="150" y1="460" x2="150" y2="475" style="stroke:rgb(0, 0, 0);stroke-linecap:square;stroke-width:2" />
	<line x1="170" y1="460" x2="170" y2="475" style="stroke:rgb(0, 0, 0);stroke-linecap:square;stroke-width:2" />
	<path d="M 150,475 M 140,475 L 180,475 L 180,499 M 140,475 L 140,499 A 5,5 90 0 0 180,499" style="fill-opacity:0;fill:rgb(0, 0, 0);stroke:rgb(0, 0, 0);stroke-linecap:square;stroke-width:2" />
	<line x1="160" y1="520" x2="160" y2="530" style="stroke:rgb(0, 0, 0);stroke-linecap:square;stroke-width:2" />
	<text x="52" y="460" style="font-family:Arial;font-size:12px;text-anchor:end" dominant-baseline="middle" transform="rotate(0, 52, 460)">wA</text>
	<line x1="63" y1="460" x2="150" y2="460" style="stroke:rgb(0, 0, 0);stroke-linecap:square;stroke-width:2" />
	<ellipse cx="60" cy="460" rx="3" ry="3" style="fill-opacity:0;fill:rgb(0, 0, 0);stroke:rgb(0, 0, 0);stroke-width:2" />
	<line x1="150" y1="260" x2="150" y2="270" style="stroke:rgb(0, 0, 0);stroke-linecap:square;stroke-width:2" />
	<line x1="200" y1="340" x2="240" y2="340" style="stroke:rgb(0, 0, 0);stroke-linecap:square;stroke-width:2" />
	<line x1="200" y1="340" x2="200" y2="430" style="stroke:rgb(0, 0, 0);stroke-linecap:square;stroke-width:2" />
	<line x1="220" y1="430" x2="250" y2="430" style="stroke:rgb(0, 0, 0);stroke-linecap:square;stroke-width:2" />
	<line x1="170" y1="430" x2="200" y2="430" style="stroke:rgb(0, 0, 0);stroke-linecap:square;stroke-width:2" />
	<line x1="220" y1="430" x2="220" y2="418" style="stroke:rgb(0, 0, 0);stroke-linecap:square;stroke-width:2" />
	<path d="M 210,416 M 220,416 L 238,416 L 220,388 L 202,416 L 220,416 M 220,388 A 2,2 5 0 1 220,382 A 2,2 5 0 1 220,388 M 220,382" style="fill-opacity:0;fill:rgb(0, 0, 0);stroke:rgb(0, 0, 0);stroke-linecap:square;stroke-width:2" />
	<line x1="220" y1="380" x2="220" y2="350" style="stroke:rgb(0, 0, 0);stroke-linecap:square;stroke-width:2" />
	<line x1="240" y1="350" x2="240" y2="370" style="stroke:rgb(0, 0, 0);stroke-linecap:square;stroke-width:2" />
	<line x1="260" y1="350" x2="260" y2="370" style="stroke:rgb(0, 0, 0);stroke-linecap:square;stroke-width:2" />
	<path d="M 240,364 M 230,364 Q 250,384 270,364 M 270,363 Q 265,398 250,413 Q 235,398 230,363" style="fill-opacity:0;fill:rgb(0, 0, 0);stroke:rgb(0, 0, 0);stroke-linecap:square;stroke-width:2" />
	<line x1="250" y1="415" x2="250" y2="430" style="stroke:rgb(0, 0, 0);stroke-linecap:square;stroke-width:2" />
	<line x1="170" y1="180" x2="250" y2="180" style="stroke:rgb(0, 0, 0);stroke-linecap:square;stroke-width:2" />
	<line x1="160" y1="350" x2="160" y2="370" style="stroke:rgb(0, 0, 0);stroke-linecap:square;stroke-width:2" />
	<line x1="180" y1="350" x2="180" y2="370" style="stroke:rgb(0, 0, 0);stroke-linecap:square;stroke-width:2" />
	<path d="M 160,364 M 150,364 Q 170,384 190,364 M 190,363 Q 185,398 170,413 Q 155,398 150,363" style="fill-opacity:0;fill:rgb(0, 0, 0);stroke:rgb(0, 0, 0);stroke-linecap:square;stroke-width:2" />
	<line x1="170" y1="415" x2="170" y2="430" style="stroke:rgb(0, 0, 0);stroke-linecap:square;stroke-width:2" />
	<text x="52" y="260" style="font-family:Arial;font-size:12px;text-anchor:end" dominant-baseline="middle" transform="rotate(0, 52, 260)">wB</text>
	<line x1="63" y1="260" x2="280" y2="260" style="stroke:rgb(0, 0, 0);stroke-linecap:square;stroke-width:2" />
	<ellipse cx="60" cy="260" rx="3" ry="3" style="fill-opacity:0;fill:rgb(0, 0, 0);stroke:rgb(0, 0, 0);stroke-width:2" />
	<line x1="250" y1="270" x2="250" y2="285" style="stroke:rgb(0, 0, 0);stroke-linecap:square;stroke-width:2" />
	<line x1="270" y1="270" x2="270" y2="285" style="stroke:rgb(0, 0, 0);stroke-linecap:square;stroke-width:2" />
	<path d="M 250,285 M 240,285 L 280,285 L 280,309 M 240,285 L 240,309 A 5,5 90 0 0 280,309" style="fill-opacity:0;fill:rgb(0, 0, 0);stroke:rgb(0, 0, 0);stroke-linecap:square;stroke-width:2" />
	<line x1="260" y1="330" x2="260" y2="340" style="stroke:rgb(0, 0, 0);stroke-linecap:square;stroke-width:2" />
	<line x1="150" y1="270" x2="150" y2="285" style="stroke:rgb(0, 0, 0);stroke-linecap:square;stroke-width:2" />
	<line x1="170" y1="270" x2="170" y2="285" style="stroke:rgb(0, 0, 0);stroke-linecap:square;stroke-width:2" />
	<path d="M 150,285 M 140,285 L 180,285 L 180,309 M 140,285 L 140,309 A 5,5 90 0 0 180,309" style="fill-opacity:0;fill:rgb(0, 0, 0);stroke:rgb(0, 0, 0);stroke-linecap:square;stroke-width:2" />
	<line x1="160" y1="330" x2="160" y2="340" style="stroke:rgb(0, 0, 0);stroke-linecap:square;stroke-width:2" />
	<line x1="170" y1="180" x2="170" y2="270" style="stroke:rgb(0, 0, 0);stroke-linecap:square;stroke-width:2" />
	<line x1="250" y1="180" x2="250" y2="197" style="stroke:rgb(0, 0, 0);stroke-linecap:square;stroke-width:2" />
	<path d="M 240,199 M 250,199 L 268,199 L 250,227 L 232,199 L 250,199 M 250,227 A 2,2 5 0 0 250,233 A 2,2 5 0 0 250,227 M 250,233" style="fill-opacity:0;fill:rgb(0, 0, 0);stroke:rgb(0, 0, 0);stroke-linecap:square;stroke-width:2" />
	<line x1="250" y1="235" x2="250" y2="270" style="stroke:rgb(0, 0, 0);stroke-linecap:square;stroke-width:2" />
	<line x1="200" y1="90" x2="200" y2="115" style="stroke:rgb(0, 0, 0);stroke-linecap:square;stroke-width:2" />
	<line x1="220" y1="90" x2="220" y2="115" style="stroke:rgb(0, 0, 0);stroke-linecap:square;stroke-width:2" />
	<path d="M 200,109 M 190,109 Q 210,129 230,109 M 190,117 Q 210,137 230,117 M 230,116 Q 225,151 210,166 Q 195,151 190,116" style="fill-opacity:0;fill:rgb(0, 0, 0);stroke:rgb(0, 0, 0);stroke-linecap:square;stroke-width:2" />
	<line x1="210" y1="165" x2="210" y2="180" style="stroke:rgb(0, 0, 0);stroke-linecap:square;stroke-width:2" />
	<text x="260" y="35" style="font-family:Arial;font-size:12px;text-anchor:middle" dominant-baseline="baseline" transform="rotate(0, 260, 35)">r0</text>
	<line x1="260" y1="43" x2="260" y2="90" style="stroke:rgb(0, 0, 0);stroke-linecap:square;stroke-width:2" />
	<ellipse cx="260" cy="40" rx="3" ry="3" style="fill-opacity:0;fill:rgb(0, 0, 0);stroke:rgb(0, 0, 0);stroke-width:2" />
	<text x="160" y="35" style="font-family:Arial;font-size:12px;text-anchor:middle" dominant-baseline="baseline" transform="rotate(0, 160, 35)">s0</text>
	<line x1="160" y1="43" x2="160" y2="90" style="stroke:rgb(0, 0, 0);stroke-linecap:square;stroke-width:2" />
	<ellipse cx="160" cy="40" rx="3" ry="3" style="fill-opacity:0;fill:rgb(0, 0, 0);stroke:rgb(0, 0, 0);stroke-width:2" />
	<ellipse cx="170" cy="430" rx="2" ry="2" style="fill-opacity:1;fill:rgb(0, 0, 0);stroke:rgb(0, 0, 0);stroke-width:2" />
	<ellipse cx="270" cy="260" rx="2" ry="2" style="fill-opacity:1;fill:rgb(0, 0, 0);stroke:rgb(0, 0, 0);stroke-width:2" />
	<ellipse cx="150" cy="260" rx="2" ry="2" style="fill-opacity:1;fill:rgb(0, 0, 0);stroke:rgb(0, 0, 0);stroke-width:2" />
	<ellipse cx="210" cy="180" rx="2" ry="2" style="fill-opacity:1;fill:rgb(0, 0, 0);stroke:rgb(0, 0, 0);stroke-width:2" />
</svg>